<?xml version="1.0" encoding="UTF-8"?>
<svg id="Layer_2" data-name="Layer 2" xmlns="http://www.w3.org/2000/svg" viewBox="0 0 58.42 16.03">
  <defs>
    <style>
      .cls-1 {
        fill: #fff;
      }
    </style>
  </defs>
  <g id="Flyer_1_Front" data-name="Flyer 1 Front">
    <g>
      <path class="cls-1" d="M6.62,5.2s-1.25,3.43-1.44,4.82C5.13,8.98,3.64,4.88,2.01,0H0l4.16,11.93h2.06l1.62-4.65-1.21-2.07Z"/>
      <polygon class="cls-1" points="10.38 0 8.37 0 7.46 2.71 9.43 2.71 10.38 0"/>
      <path class="cls-1" d="M17.96,2.99h2.09l1.84,5.11c.28.73.46,1.41.55,2.06h.07c.05-.3.14-.66.27-1.09.13-.43.82-2.45,2.07-6.08h2.07l-3.86,10.22c-.7,1.88-1.87,2.81-3.51,2.81-.42,0-.84-.05-1.24-.14v-1.52c.29.07.62.1.99.1.92,0,1.57-.54,1.95-1.61l.33-.85-3.62-9.02ZM32.93,12.01l-.38-1.26h-.07c-.44.55-.87.92-1.31,1.12-.44.2-1.01.3-1.7.3-.89,0-1.58-.24-2.08-.72-.5-.48-.75-1.16-.75-2.03,0-.93.35-1.63,1.04-2.1.69-.47,1.74-.73,3.16-.77l1.56-.05v-.48c0-.58-.13-1.01-.4-1.29-.27-.29-.69-.43-1.25-.43-.46,0-.91.07-1.33.2-.42.14-.83.3-1.22.48l-.62-1.37c.49-.26,1.02-.45,1.61-.58.58-.13,1.13-.2,1.65-.2,1.15,0,2.01.25,2.6.75.58.5.88,1.29.88,2.36v6.08h-1.37ZM30.08,10.71c.7,0,1.25-.19,1.68-.58.42-.39.63-.93.63-1.64v-.78l-1.16.05c-.9.03-1.56.18-1.97.45-.41.27-.62.68-.62,1.24,0,.4.12.71.36.93s.6.33,1.08.33M43.59,2.99v1.05l-1.54.29c.14.19.26.42.35.7.09.28.14.57.14.88,0,.93-.32,1.66-.96,2.19-.64.53-1.53.8-2.65.8-.29,0-.55-.02-.78-.07-.41.26-.62.55-.62.9,0,.21.1.36.29.47.19.1.55.15,1.06.15h1.57c1,0,1.75.21,2.27.64.52.42.77,1.04.77,1.84,0,1.02-.42,1.81-1.26,2.37-.84.55-2.06.83-3.65.83-1.23,0-2.17-.22-2.81-.65-.65-.44-.97-1.06-.97-1.86,0-.55.18-1.02.53-1.4s.84-.64,1.47-.79c-.26-.11-.47-.28-.63-.53-.17-.24-.25-.5-.25-.76,0-.34.09-.62.29-.86.19-.23.47-.46.85-.69-.47-.2-.85-.53-1.14-.98-.29-.45-.44-.99-.44-1.6,0-.98.31-1.74.93-2.28.62-.54,1.5-.81,2.64-.81.26,0,.52.02.8.05.28.04.49.07.63.11h3.12ZM36.5,13.42c0,.41.19.73.56.95.37.22.9.33,1.57.33,1.04,0,1.82-.15,2.33-.45.51-.3.77-.7.77-1.19,0-.39-.14-.67-.42-.84-.28-.17-.8-.25-1.56-.25h-1.45c-.55,0-.99.13-1.31.39-.32.26-.49.61-.49,1.05M37.33,5.91c0,.57.15,1,.44,1.31s.71.46,1.25.46c1.11,0,1.66-.59,1.66-1.78,0-.59-.14-1.04-.41-1.36-.27-.32-.69-.48-1.25-.48s-.97.16-1.26.47c-.29.32-.43.77-.43,1.38M48.2,12.18c-1.4,0-2.5-.41-3.29-1.23-.79-.82-1.19-1.95-1.19-3.38s.37-2.63,1.1-3.48c.73-.84,1.74-1.26,3.03-1.26,1.19,0,2.13.36,2.82,1.09.69.72,1.04,1.72,1.04,2.99v1.04h-6.01c.03.88.26,1.55.71,2.02.45.47,1.07.71,1.88.71.53,0,1.03-.05,1.49-.15.46-.1.95-.27,1.48-.5v1.56c-.47.22-.94.38-1.42.47-.48.09-1.03.14-1.64.14M47.85,4.28c-.61,0-1.1.19-1.46.58-.37.39-.59.95-.66,1.69h4.1c-.01-.75-.19-1.31-.54-1.69-.35-.38-.83-.58-1.44-.58M57.46,2.83c.39,0,.7.03.95.08l-.19,1.79c-.27-.07-.55-.1-.85-.1-.77,0-1.39.25-1.86.75-.48.5-.71,1.15-.71,1.95v4.72h-1.92V2.99h1.5l.25,1.59h.1c.3-.54.69-.97,1.17-1.28.48-.32,1-.47,1.55-.47"/>
      <path class="cls-1" d="M14.98,3.03c-2.49-.85-5.2.49-6.04,2.98-.85,2.49.49,5.2,2.98,6.04,2.49.85,5.2-.49,6.04-2.98.85-2.49-.49-5.2-2.98-6.04ZM15.58,8.27c-.4,1.18-1.68,1.81-2.86,1.41-1.18-.4-1.81-1.68-1.41-2.86.4-1.18,1.68-1.81,2.86-1.41,1.18.4,1.81,1.68,1.41,2.86Z"/>
      <polygon class="cls-1" points="5.83 3.09 7.6 3.09 9.93 3.09 8.49 4.62 7.92 6.67 6.72 4.63 5.83 3.09"/>
    </g>
  </g>
</svg>